<svg width="20" height="24" viewBox="0 0 20 24" fill="none" xmlns="http://www.w3.org/2000/svg">
<path d="M16.5568 23.5C16.4262 23.5 16.2972 23.45 16.1891 23.356L9.984 17.928L3.77894 23.358C3.58925 23.522 3.33799 23.548 3.12832 23.418C2.92032 23.291 2.7872 23.033 2.7872 22.751V5.59998C2.7872 4.35998 3.62752 3.34998 4.6592 3.34998H15.3071C16.3388 3.34998 17.1791 4.35998 17.1791 5.59998V22.75C17.1791 23.032 17.0477 23.29 16.838 23.418C16.7498 23.473 16.6525 23.5 16.5551 23.5H16.5568ZM9.984 16.25C10.113 16.25 10.2419 16.298 10.3501 16.394L15.9328 21.277V5.59998C15.9328 5.18798 15.6524 4.84998 15.3088 4.84998H4.6592C4.31559 4.84998 4.0352 5.18798 4.0352 5.59998V21.277L9.61792 16.394C9.72608 16.298 9.85504 16.25 9.984 16.25Z" fill="white"/>
</svg>
