<svg width="25" height="24" viewBox="0 0 25 24" fill="none" xmlns="http://www.w3.org/2000/svg">
<path d="M20.1813 12.515L19.6708 12.135C20.6604 11.065 21.2438 9.65502 21.2438 8.13502C21.2438 4.77502 18.3792 2.02502 14.8479 2.02502C13.6188 2.02502 12.4625 2.36502 11.4938 2.93502C10.65 2.36502 9.63959 2.02502 8.53542 2.02502C5.73334 2.02502 3.45209 4.20502 3.45209 6.87502C3.45209 7.89502 3.775 8.84502 4.34792 9.62502C2.26459 11.125 1.01459 13.485 1.01459 15.985C1.01459 17.265 2.11875 18.315 3.45209 18.315H5.84792C5.78542 18.715 5.75417 19.125 5.75417 19.545C5.75417 20.915 6.92084 22.035 8.34792 22.035H21.3375C22.0563 22.035 22.7021 21.755 23.1708 21.305C23.65 20.855 23.9313 20.225 23.9313 19.535C23.9313 16.745 22.525 14.115 20.1813 12.515ZM12.6083 3.98502C13.2854 3.65502 14.0458 3.46502 14.8479 3.46502C17.5458 3.46502 19.7542 5.56502 19.7542 8.13502C19.7542 9.43502 19.1917 10.615 18.2854 11.465C18.0146 11.715 17.7125 11.945 17.4 12.115H17.3896C17.1917 12.235 16.9938 12.335 16.7854 12.415C16.3583 12.605 15.9 12.735 15.4313 12.775C15.3896 12.785 15.3375 12.785 15.2958 12.785C15.15 12.805 15.0042 12.815 14.8479 12.815C14.525 12.815 14.2229 12.785 13.9208 12.735C13.2229 12.605 12.5875 12.335 12.025 11.965C11.7646 11.795 11.525 11.595 11.2958 11.375C11.2125 11.285 11.1188 11.195 11.0458 11.095C10.7229 10.725 10.4625 10.305 10.275 9.85502C10.0563 9.31502 9.93125 8.74502 9.93125 8.13502C9.93125 6.84502 10.4938 5.67502 11.3896 4.81502C11.7542 4.48502 12.1604 4.19502 12.6083 3.98502ZM8.53542 3.46502C9.16042 3.46502 9.74375 3.61502 10.2542 3.88502C9.12917 4.98502 8.44167 6.48502 8.44167 8.13502C8.44167 8.88502 8.57709 9.60502 8.84792 10.275C8.74375 10.295 8.63959 10.295 8.53542 10.295C7.85834 10.295 7.23334 10.115 6.70209 9.80502C6.45209 9.66502 6.22292 9.49502 6.025 9.30502C5.8375 9.14502 5.68125 8.95502 5.54584 8.75502C5.16042 8.21502 4.94167 7.56502 4.94167 6.87502C4.94167 5.00502 6.55625 3.46502 8.53542 3.46502ZM6.19167 16.885H3.45209C2.93125 16.885 2.51459 16.475 2.51459 15.975C2.51459 13.875 3.57709 11.905 5.37917 10.675C6.25417 11.335 7.3375 11.725 8.53542 11.725C8.9 11.725 9.25417 11.685 9.59792 11.615C9.7125 11.795 9.86875 11.965 10.0146 12.135L9.5875 12.455C7.9625 13.555 6.78542 15.115 6.19167 16.885ZM21.3375 20.605H8.34792C7.74375 20.605 7.24375 20.125 7.24375 19.535C7.24375 19.115 7.28542 18.715 7.35834 18.315C7.44167 17.815 7.5875 17.345 7.78542 16.885C8.31667 15.595 9.23334 14.445 10.4625 13.615L11.1396 13.115C12.1917 13.835 13.4729 14.255 14.8479 14.255C15.2021 14.255 15.5563 14.225 15.8896 14.165C16.4 14.085 16.8792 13.955 17.3375 13.775C17.7646 13.595 18.1813 13.375 18.5563 13.115L19.2854 13.655C21.2646 15.015 22.4417 17.205 22.4417 19.535C22.4417 20.125 21.9521 20.605 21.3375 20.605Z" fill="white"/>
</svg>
