<svg width="24" height="24" viewBox="0 0 24 24" fill="none" xmlns="http://www.w3.org/2000/svg">
<path d="M9.27299 12.148L8.77099 12.535C6.96699 13.805 5.66399 15.634 5.00199 17.69H3.28599C1.86699 17.69 0.736991 16.365 1.05399 14.955C1.45899 13.15 2.52099 11.525 4.08499 10.405C5.04599 11.169 6.26299 11.632 7.58699 11.632C7.78999 11.632 7.99299 11.621 8.18499 11.6C8.38799 11.579 8.57999 11.546 8.77199 11.503C8.92099 11.728 9.09099 11.943 9.27299 12.148V12.148ZM7.51099 7.477C7.51099 8.359 7.67099 9.21 7.96999 9.995C7.84199 10.006 7.71399 10.017 7.58599 10.017C6.80699 10.017 6.06999 9.791 5.45099 9.393C5.20499 9.242 4.97099 9.07 4.76799 8.866C4.57599 8.672 4.40499 8.468 4.24499 8.242C3.81799 7.596 3.57199 6.832 3.57199 6.004C3.57199 3.797 5.37599 2 7.58599 2C8.29099 2 8.96299 2.183 9.54999 2.517C8.27999 3.786 7.51099 5.54 7.51099 7.477V7.477ZM20.723 22H8.52099C7.14999 22 6.03999 20.767 6.26199 19.38C6.62499 17.16 7.86499 15.136 9.75099 13.8L10.527 13.194C11.677 14.037 13.078 14.53 14.611 14.53H14.621C16.154 14.53 17.555 14.037 18.705 13.194L19.492 13.8C21.368 15.136 22.608 17.16 22.971 19.38C23.193 20.767 22.094 22 20.723 22V22ZM20.077 7.477C20.077 9.005 19.447 10.393 18.422 11.383C18.144 11.663 17.824 11.91 17.483 12.115H17.472C16.895 12.481 16.266 12.739 15.572 12.868C15.252 12.922 14.921 12.954 14.59 12.954C14.131 12.954 13.683 12.9 13.256 12.782C12.583 12.621 11.964 12.33 11.42 11.943C11.142 11.739 10.886 11.513 10.651 11.265C10.171 10.77 9.77599 10.178 9.51899 9.522C9.25199 8.898 9.11299 8.199 9.11299 7.477C9.11299 5.938 9.74299 4.55 10.768 3.56C11.75 2.592 13.106 2 14.59 2C17.611 2 20.077 4.454 20.077 7.477Z" fill="white"/>
</svg>
