<svg width="25" height="24" viewBox="0 0 25 24" fill="none" xmlns="http://www.w3.org/2000/svg">
<path d="M21.875 7.33698H17.7812L18.1687 3.06498C18.2062 2.65298 17.8875 2.28998 17.4583 2.25298C17.024 2.22298 16.65 2.52298 16.6125 2.93598L16.2135 7.33598H9.63021L10.0156 3.06598C10.0542 2.65298 9.73438 2.28998 9.30729 2.25298C8.86979 2.22298 8.49792 2.52298 8.46042 2.93598L8.0625 7.33598H3.93958C3.50833 7.33598 3.15833 7.67298 3.15833 8.08598C3.15833 8.49898 3.50833 8.83598 3.93958 8.83598H7.92708L7.35417 15.163H3.125C2.69375 15.163 2.34375 15.499 2.34375 15.913C2.34375 16.327 2.69375 16.663 3.125 16.663H7.21875L6.83125 20.935C6.79375 21.347 7.1125 21.71 7.54167 21.747L7.61042 21.75C8.01146 21.75 8.35208 21.455 8.3875 21.064L8.78646 16.664H15.3698L14.9844 20.934C14.9469 21.347 15.2656 21.71 15.6948 21.747L15.7635 21.75C16.1646 21.75 16.5052 21.455 16.5406 21.064L16.9385 16.664H21.0604C21.4906 16.664 21.8417 16.327 21.8417 15.914C21.8417 15.501 21.4906 15.164 21.0604 15.164H17.0729L17.6458 8.83698H21.875C22.3062 8.83698 22.6562 8.50098 22.6562 8.08698C22.6562 7.67298 22.3062 7.33698 21.875 7.33698ZM15.5052 15.163H8.92187L9.49479 8.83698H16.0781L15.5052 15.163Z" fill="white"/>
</svg>
