<svg width="25" height="24" viewBox="0 0 25 24" fill="none" xmlns="http://www.w3.org/2000/svg">
<path d="M20.0521 3.01801H4.94793C3.36772 3.01801 2.08334 4.25201 2.08334 5.77001V18.265C2.08334 19.783 3.36772 21.018 4.94793 21.018H20.0521C21.6323 21.018 22.9167 19.783 22.9167 18.265V5.77001C22.9167 4.25201 21.6323 3.01801 20.0521 3.01801ZM4.94793 4.51801H20.0521C20.7708 4.51801 21.3542 5.07801 21.3542 5.76801V6.48201L12.9688 11.849C12.6844 12.029 12.3167 12.031 12.0313 11.847L3.64584 6.48201V5.76801C3.64584 5.07801 4.22918 4.51801 4.94793 4.51801ZM20.0521 19.516H4.94793C4.22918 19.516 3.64584 18.956 3.64584 18.266V8.24001L11.1875 13.07C11.5865 13.326 12.0438 13.454 12.5 13.454C12.9583 13.454 13.4136 13.326 13.8125 13.071L21.3542 8.24101V18.263C21.3542 18.953 20.7708 19.513 20.0521 19.513V19.516Z" fill="white"/>
</svg>
