<svg width="25" height="24" viewBox="0 0 25 24" fill="none" xmlns="http://www.w3.org/2000/svg">
<path d="M17.7083 13.5C18.5713 13.5 19.2708 12.8284 19.2708 12C19.2708 11.1716 18.5713 10.5 17.7083 10.5C16.8454 10.5 16.1458 11.1716 16.1458 12C16.1458 12.8284 16.8454 13.5 17.7083 13.5Z" fill="white"/>
<path d="M12.5 13.5C13.3629 13.5 14.0625 12.8284 14.0625 12C14.0625 11.1716 13.3629 10.5 12.5 10.5C11.6371 10.5 10.9375 11.1716 10.9375 12C10.9375 12.8284 11.6371 13.5 12.5 13.5Z" fill="white"/>
<path d="M7.29163 13.5C8.15457 13.5 8.85413 12.8284 8.85413 12C8.85413 11.1716 8.15457 10.5 7.29163 10.5C6.42868 10.5 5.72913 11.1716 5.72913 12C5.72913 12.8284 6.42868 13.5 7.29163 13.5Z" fill="white"/>
<path d="M12.5 22.75C6.32498 22.75 1.30206 17.928 1.30206 12C1.30206 6.072 6.32498 1.25 12.5 1.25C18.675 1.25 23.6979 6.072 23.6979 12C23.6979 17.928 18.675 22.75 12.5 22.75ZM12.5 2.75C7.18748 2.75 2.86456 6.9 2.86456 12C2.86456 17.1 7.18748 21.25 12.5 21.25C17.8125 21.25 22.1354 17.1 22.1354 12C22.1354 6.9 17.8125 2.75 12.5 2.75Z" fill="white"/>
</svg>
