<svg width="25" height="24" viewBox="0 0 25 24" fill="none" xmlns="http://www.w3.org/2000/svg">
<path d="M22.601 16.468C22.5802 16.452 20.3719 14.828 20.4104 10.438C20.4312 7.90599 19.5646 5.65599 17.9656 4.10299C16.5333 2.70999 14.5937 1.93999 12.5052 1.92999H12.4917C10.4042 1.93999 8.46457 2.70999 7.03124 4.10399C5.43332 5.65699 4.56457 7.90599 4.58749 10.438C4.62603 14.768 2.48332 16.405 2.3979 16.468C2.12707 16.661 2.01665 16.998 2.12186 17.306C2.22811 17.614 2.52811 17.821 2.86353 17.821H7.98853C8.09478 20.131 10.0687 21.981 12.4989 21.981C14.9292 21.981 16.901 20.131 17.0062 17.821H22.1333C22.4687 17.821 22.7687 17.615 22.8729 17.307C22.9802 17 22.8698 16.662 22.5989 16.469L22.601 16.468ZM12.5 20.478C10.9323 20.478 9.65624 19.301 9.55415 17.82H15.4458C15.3417 19.3 14.0677 20.48 12.5 20.48V20.478ZM4.56249 16.32C5.33332 15.188 6.17499 13.292 6.14999 10.424C6.13124 8.26399 6.82082 6.44199 8.14269 5.15699C9.28124 4.04999 10.8302 3.43699 12.5 3.42999C14.1698 3.43799 15.7156 4.04999 16.8542 5.15799C18.1771 6.44299 18.8677 8.26399 18.8489 10.425C18.8239 13.293 19.6667 15.19 20.4375 16.321H4.56249V16.32Z" fill="white"/>
</svg>
