<svg width="25" height="24" viewBox="0 0 25 24" fill="none" xmlns="http://www.w3.org/2000/svg">
<path d="M12.5 11.816C13.9115 11.816 15.4917 11.666 16.5 10.56C17.3479 9.63001 17.6229 8.19201 17.3396 6.16801C16.9438 3.34301 15.1344 1.65601 12.5 1.65601C9.86565 1.65601 8.05627 3.34301 7.66044 6.17001C7.37711 8.19201 7.65211 9.63001 8.50002 10.56C9.50836 11.667 11.0886 11.816 12.5 11.816V11.816ZM9.20836 6.36801C9.37711 5.16801 10.0281 3.15601 12.5 3.15601C14.9719 3.15601 15.6229 5.16901 15.7917 6.36801C16.0073 7.91801 15.8511 8.99501 15.3229 9.57301C14.849 10.093 14.0042 10.316 12.5 10.316C10.9959 10.316 10.1511 10.093 9.67711 9.57301C9.14898 8.99501 8.99273 7.91701 9.20836 6.36801ZM21.125 19.236C20.2115 15.71 16.6646 13.246 12.5 13.246C8.33544 13.246 4.78856 15.71 3.87502 19.236C3.69586 19.928 3.84586 20.636 4.28648 21.176C4.71148 21.696 5.36982 21.996 6.09169 21.996H18.9084C19.6302 21.996 20.2886 21.696 20.7136 21.176C21.1552 20.636 21.3042 19.929 21.124 19.236H21.125ZM19.4834 20.252C19.3521 20.412 19.1542 20.498 18.9084 20.498H6.09169C5.8469 20.498 5.64794 20.413 5.51669 20.252C5.37398 20.078 5.32919 19.84 5.39169 19.598C6.13127 16.743 9.05523 14.748 12.5 14.748C15.9448 14.748 18.8688 16.742 19.6084 19.598C19.6709 19.84 19.6261 20.078 19.4834 20.252V20.252Z" fill="white"/>
</svg>
