<svg width="25" height="24" viewBox="0 0 25 24" fill="none" xmlns="http://www.w3.org/2000/svg">
<path d="M24.6281 4.93701C23.7583 5.30701 22.8239 5.55701 21.8416 5.67001C22.8437 5.09401 23.6125 4.18001 23.975 3.09201C23.0375 3.62601 21.9989 4.01401 20.8937 4.22201C20.0083 3.31801 18.7479 2.75201 17.3521 2.75201C14.6729 2.75201 12.5 4.83801 12.5 7.41201C12.5 7.77601 12.5437 8.13001 12.625 8.47201C8.5906 8.27701 5.01664 6.42201 2.62289 3.60401C2.20622 4.29401 1.96664 5.09401 1.96664 5.94601C1.96664 7.56201 2.82393 8.98901 4.12497 9.82401C3.32914 9.79901 2.58122 9.59001 1.92705 9.24101V9.30101C1.92705 11.558 3.59893 13.441 5.81976 13.869C5.41143 13.975 4.9833 14.031 4.54164 14.031C4.22914 14.031 3.92393 14.003 3.6281 13.949C4.2458 15.799 6.03747 17.147 8.16143 17.183C6.49997 18.433 4.40726 19.178 2.13435 19.178C1.74268 19.178 1.35622 19.156 0.976013 19.113C3.12393 20.436 5.67393 21.206 8.41351 21.206C17.3406 21.206 22.2208 14.108 22.2208 7.95201C22.2208 7.75201 22.2156 7.55001 22.2062 7.35001C23.1541 6.69201 23.9771 5.87301 24.626 4.94001L24.6281 4.93701Z" fill="white"/>
</svg>
